PathFileType	4	(X/Y/Z)	C:\Users\ebm\Documents\Erivelton\Erivelton2\wc10.trc
DataRate	CameraRate	NumFrames	NumMarkers	Units	OrigDataRate	OrigDataStartFrame	OrigNumFrames
150.00	150.00	      8	28	mm	150.00	814	      1302
Frame#	Time	IJ			PX			C7			T8			RAC			RAS			RPS			RAI			RPI			RLE			RME			RRS			RUS			R3M			R5M			LAC			LAS			LPS			LAI			LPI			LLE			LME			LRS			LUS			L3M			L5M			RW			LW			V_mid_elbow_r			V_mid_elbow_l			V_mid_wrist_r			V_mid_wrist_l			V_mid_trunk_low			V_mid_trunk_upp			
		X1	Y1	Z1	X2	Y2	Z2	X3	Y3	Z3	X4	Y4	Z4	X5	Y5	Z5	X6	Y6	Z6	X7	Y7	Z7	X8	Y8	Z8	X9	Y9	Z9	X10	Y10	Z10	X11	Y11	Z11	X12	Y12	Z12	X13	Y13	Z13	X14	Y14	Z14	X15	Y15	Z15	X16	Y16	Z16	X17	Y17	Z17	X18	Y18	Z18	X19	Y19	Z19	X20	Y20	Z20	X21	Y21	Z21	X22	Y22	Z22	X23	Y23	Z23	X24	Y24	Z24	X25	Y25	Z25	X26	Y26	Z26	X27	Y27	Z27	X28	Y28	Z28	

814	5.420	1931.64319	1032.91211	-150.58510	1940.04297	868.26709	-124.22292	1804.92029	1133.43665	-169.98335	1725.31079	983.45074	-156.50400	1856.46960	1085.94653	47.17609	1933.24792	905.00769	95.27383	1889.14661	895.54822	117.75233	1964.89722	835.27216	110.16425	1919.07983	822.41687	136.19952	1958.80579	763.11993	136.91449	1919.67981	732.63452	74.89039	2179.20264	738.82495	-29.16481	2182.95972	716.28149	29.35822	2261.11060	709.21265	-9.84279	2246.77319	690.13898	23.83002	1854.90662	1063.33984	-344.65964	1920.12976	905.17224	-405.59100	1878.02283	881.07227	-410.28583	1966.29578	838.77692	-412.11465	1920.33167	808.82147	-416.83536	2004.40576	756.93994	-417.67984	1955.73193	720.01904	-371.17978	2203.61694	731.41620	-233.19321	2221.95361	705.23352	-290.46176	2292.35571	701.19507	-250.48627	2272.14160	686.67780	-285.38794	1830.00964	297.56491	175.76244	1898.23328	299.81207	-449.58905	
815	5.427	1939.07776	1032.98572	-149.88611	1947.52039	868.27502	-123.61304	1812.35938	1133.46423	-169.32559	1732.82251	983.41125	-155.98456	1863.74377	1085.85657	47.90189	1940.67725	904.95624	95.95911	1896.56250	895.52429	118.40786	1972.28943	835.24597	110.83629	1926.46655	822.35156	136.81036	1966.29846	763.09290	137.59258	1927.16687	732.60095	75.56894	2186.69019	738.28271	-28.52970	2190.30981	716.22968	30.20021	2268.69409	709.17340	-8.97051	2254.51318	690.18915	24.53091	1862.65967	1063.41956	-344.03214	1927.91040	905.24683	-405.10733	1885.80139	881.15778	-409.73831	1974.06641	838.92261	-411.44916	1928.15027	808.91809	-416.21002	2012.25281	757.02319	-416.84625	1963.56274	720.14435	-370.51889	2211.24512	731.33179	-232.29851	2229.60571	705.25024	-289.53094	2300.08228	701.10669	-249.49243	2279.98389	686.63086	-284.37030	1837.32251	297.69983	176.45415	1906.01611	299.81467	-448.83249	
816	5.433	1946.65735	1033.04150	-149.12784	1955.06006	868.34589	-122.87869	1819.89270	1133.46387	-168.63332	1740.35791	983.38702	-155.44188	1871.02991	1085.78674	48.66714	1948.13416	904.93860	96.57973	1903.90356	895.46222	119.17291	1979.71497	835.24591	111.48635	1933.87573	822.31396	137.47935	1973.76318	763.03949	138.20850	1934.72083	732.55481	76.15887	2194.34717	738.39697	-27.68227	2197.87646	716.12567	31.01019	2276.24731	709.21924	-8.00518	2261.84131	690.21234	25.51548	1870.37109	1063.48914	-343.32852	1935.72485	905.36963	-404.37848	1893.70557	881.26501	-409.03494	1981.93921	839.02448	-410.69159	1936.03796	809.08234	-415.56421	2020.16711	757.36481	-416.25137	1971.46362	720.22565	-369.83575	2219.01465	731.34265	-231.54811	2237.45874	705.24390	-288.68561	2307.83496	701.30499	-248.69316	2287.50513	686.56866	-283.70068	1844.66187	297.78098	177.10927	1913.96497	299.68420	-448.03000	
817	5.440	1954.24548	1033.14392	-148.36171	1962.74158	868.54456	-122.12863	1827.33142	1133.47083	-168.00368	1747.87463	983.35773	-154.90016	1878.38086	1085.78284	49.31657	1955.58545	904.91467	97.20922	1911.32153	895.35547	119.72051	1987.22644	835.13983	112.18124	1941.28040	822.21869	138.07074	1981.04468	762.97198	138.85481	1942.21045	732.52686	76.69328	2201.96997	738.58344	-26.86292	2205.51221	716.24670	31.96470	2283.75537	709.26874	-7.06397	2269.42480	690.22205	26.53007	1878.02332	1063.59399	-342.71182	1943.56921	905.49011	-403.63837	1901.43774	881.45465	-408.49704	1989.80005	839.16693	-410.08545	1943.88477	809.19666	-414.89819	2027.97852	757.48145	-415.42850	1979.31274	720.30566	-369.28748	2226.64111	731.36951	-230.59810	2245.13428	705.26794	-287.81256	2315.49170	701.30560	-247.68124	2295.38916	686.64722	-282.59021	1852.05115	297.90613	177.80513	1921.64502	299.61194	-447.38382	
818	5.447	1961.69653	1033.23584	-147.57227	1970.33838	868.61127	-121.50520	1834.81409	1133.48804	-167.31590	1755.41333	983.34979	-154.43346	1885.61707	1085.69800	50.00619	1962.96704	904.89374	97.92738	1918.65918	895.29144	120.32349	1994.44043	835.16907	112.75684	1948.60645	822.14392	138.68951	1988.42810	762.91986	139.50858	1949.55432	732.52899	77.26837	2209.56836	738.68701	-25.94651	2212.94336	716.24646	32.77794	2291.38037	709.28290	-6.17028	2276.86230	690.29413	27.49259	1885.79163	1063.68274	-342.01807	1951.39722	905.64832	-402.98843	1909.26880	881.50537	-407.86151	1997.64673	839.30823	-409.34927	1951.61377	809.31824	-414.34607	2035.92981	757.51770	-414.91675	1987.13464	720.38031	-368.61932	2234.40576	731.51312	-229.67023	2252.76123	705.30133	-286.89786	2322.94312	700.90729	-246.72717	2303.03857	686.66937	-281.87082	1859.39478	298.02557	178.52617	1929.48120	299.57700	-446.59436	
819	5.453	1969.22083	1033.31360	-146.84430	1977.76086	868.60156	-120.80128	1842.27307	1133.49500	-166.68904	1763.00623	983.37866	-153.91112	1892.94189	1085.68164	50.71309	1970.33301	904.82281	98.56824	1925.93555	895.27069	120.95065	2001.83545	835.11737	113.48125	1955.90356	822.10382	139.27594	1995.71106	762.87140	140.13483	1956.99426	732.48236	77.85335	2217.14941	738.80286	-25.33765	2220.33228	716.21808	33.55698	2298.78809	709.35559	-5.15303	2284.28589	690.40826	28.41296	1893.43396	1063.76965	-341.36209	1959.19250	905.72571	-402.28403	1917.09180	881.62415	-407.25259	2005.42224	839.40753	-408.69995	1959.35754	809.46698	-413.75833	2043.67212	757.69055	-414.31281	1994.89819	720.55762	-368.09146	2241.94873	731.53900	-228.98296	2260.58325	705.37042	-285.96796	2330.53101	700.99072	-245.87811	2310.69507	686.78198	-281.09680	1866.80688	298.09937	179.16200	1937.28455	299.52731	-445.88330	
820	5.460	1976.71692	1033.38696	-146.16539	1985.35291	868.77051	-120.07198	1849.80286	1133.53027	-166.06628	1770.54333	983.37921	-153.41530	1900.16467	1085.62451	51.39993	1977.68994	904.78583	99.25759	1933.14087	895.15790	121.57726	2009.07556	835.10181	114.16068	1963.12817	822.01855	139.90889	2003.02368	762.79187	140.76048	1964.39771	732.43378	78.46026	2224.68262	738.83820	-24.56154	2227.80176	716.49786	34.53658	2306.25293	709.46906	-4.32185	2291.69458	690.52985	29.12209	1901.22900	1063.84717	-340.68820	1966.94727	905.82117	-401.72980	1924.86121	881.79272	-406.61249	2013.17236	839.52545	-408.06192	1967.32922	809.62012	-413.07889	2051.52246	757.87280	-413.72403	2002.68738	720.66974	-367.43820	2249.41235	731.55194	-228.03494	2268.05762	705.49524	-285.10870	2338.13574	701.08289	-244.87302	2318.32056	686.92456	-280.08621	1874.13367	298.22379	179.89699	1945.09558	299.54312	-445.04364	
821	5.467	1984.14160	1033.41589	-145.40263	1992.88184	868.83185	-119.38392	1857.29102	1133.57166	-165.44484	1778.08997	983.37024	-152.88229	1907.47449	1085.69348	52.07544	1984.96777	904.79449	99.98527	1940.36719	895.13196	122.20590	2016.28894	835.03577	114.86236	1970.38672	821.95563	140.50336	2010.24329	762.76459	141.43932	1971.74097	732.38873	79.00717	2232.21680	739.12250	-23.66286	2235.11816	716.50488	35.34396	2313.67236	709.56305	-3.36741	2299.01465	690.60797	30.13412	1908.91174	1063.94495	-340.01807	1974.75171	906.04852	-400.99460	1932.70581	881.92822	-406.01270	2020.90308	839.65271	-407.51917	1975.07568	809.73859	-412.55881	2059.37012	757.97473	-412.92560	2010.42664	720.81805	-366.83432	2257.10669	731.84277	-227.02437	2275.76538	705.57776	-284.18079	2345.74072	701.26337	-243.78580	2325.93677	687.03998	-279.08746	1881.58508	298.35577	180.63615	1953.00793	299.46741	-444.28671	
